<svg width="485" height="90" xmlns="http://www.w3.org/2000/svg">
 <style type="text/css">.st0{fill:#FF0000;}</style>

 <g>
  <title>background</title>
  <rect fill="none" id="canvas_background" height="402" width="582" y="-1" x="-1"/>
 </g>
 <g>
  <title>Layer 1</title>
  <path id="svg_4" d="m67.9,45.9l18.1,22.2l-13,0l-11.4,-14.3l-11.4,14.3l-13,0l18.1,-22.2l-17.2,-20.9l13.1,0l10.3,13.1l10.4,-13.1l13.1,0l-17.1,20.9z" class="st0"/>
  <g id="svg_16">
   <path fill="#ffffff" id="svg_3" d="m25.2,41.7c-1.4,1.8 -3,2.9 -4.9,3.3c1.9,0.4 3.5,1.5 4.9,3.3c1.4,1.8 2.1,4 2.1,6.6l0,16.9c0,1.4 0.3,2.3 0.9,3c0.6,0.6 1.5,0.9 2.8,0.9l6.1,0l0,8.3l-9.9,0c-3.4,0 -6,-0.9 -7.9,-2.8c-1.9,-1.9 -2.8,-4.5 -2.8,-7.8l0,-17.2c0,-2.3 -0.4,-4.1 -1.2,-5.1c-0.8,-1.1 -2.3,-1.7 -4.4,-1.9l-3.2,-0.2l0,-8l3.2,-0.3c2.1,-0.2 3.6,-0.8 4.4,-1.8c0.8,-1.1 1.2,-2.8 1.2,-5.1l0,-17.1c0,-3.3 0.9,-6 2.8,-7.8c1.9,-1.9 4.5,-2.9 7.9,-2.9l9.9,0l0,8.3l-6.1,0c-1.2,0 -2.2,0.3 -2.8,0.9s-0.9,1.6 -0.9,3l0,16.9c0,2.6 -0.7,4.8 -2.1,6.6z"/>
   <path fill="#ffffff" id="svg_5" d="m115.4,41l0,8l-3.2,0.3c-2.1,0.2 -3.6,0.8 -4.4,1.9c-0.8,1.1 -1.2,2.8 -1.2,5.1l0,17.1c0,3.3 -0.9,6 -2.8,7.8c-1.8,1.8 -4.5,2.8 -7.9,2.8l-9.9,0l0,-8.3l6.1,0c1.2,0 2.2,-0.3 2.8,-0.9c0.6,-0.6 0.9,-1.6 0.9,-3l0,-16.9c0,-2.6 0.7,-4.8 2.1,-6.6c1.4,-1.8 3,-2.8 4.9,-3.3c-1.9,-0.4 -3.5,-1.5 -4.9,-3.3c-1.4,-1.8 -2.1,-4 -2.1,-6.7l0,-16.8c0,-1.4 -0.3,-2.3 -0.9,-3c-0.6,-0.6 -1.5,-0.9 -2.8,-0.9l-6.1,0l0,-8.3l9.9,0c3.4,0 6,0.9 7.9,2.8c1.9,1.9 2.8,4.5 2.8,7.8l0,17.1c0,2.4 0.4,4.1 1.2,5.1c0.8,1.1 2.3,1.7 4.4,1.8l3.2,0.4z"/>
   <path fill="#ffffff" id="svg_6" d="m125.2,48.9l0,-8.7l26.3,0l0,8.7l-26.3,0z"/>
   <g id="svg_7">
    <path fill="#ffffff" id="svg_8" d="m164.1,13.6l27.1,0c6.6,0 11.8,1.7 15.5,5c3.7,3.3 5.6,8 5.6,14s-1.9,10.7 -5.6,14c-3.7,3.3 -8.9,5 -15.5,5l-15.8,0l0,24.1l-11.4,0l0,-62.1l0.1,0zm25.8,29.2c7.8,0 11.7,-3.4 11.7,-10.2c0,-3.5 -1,-6 -2.9,-7.7c-1.9,-1.7 -4.9,-2.5 -8.8,-2.5l-14.4,0l0,20.4l14.4,0z"/>
    <path fill="#ffffff" id="svg_9" d="m248.8,40.7l-6.4,0.6c-7.3,0.8 -10.9,4.5 -10.9,11.1l0,23.3l-11,0l0,-43.1l10.5,0l0,7.6c2.2,-5.2 6.8,-8 13.8,-8.5l3.3,-0.3l0.7,9.3z"/>
    <path fill="#ffffff" id="svg_10" d="m261.4,73.7c-3.3,-1.8 -5.9,-4.4 -7.7,-7.8c-1.8,-3.4 -2.7,-7.4 -2.7,-11.9c0,-4.5 0.9,-8.5 2.7,-11.9c1.8,-3.4 4.4,-6 7.7,-7.8c3.3,-1.8 7.2,-2.7 11.6,-2.7c4.4,0 8.3,0.9 11.6,2.7c3.3,1.8 5.9,4.4 7.7,7.8c1.8,3.4 2.7,7.3 2.7,11.9c0,4.5 -0.9,8.5 -2.7,11.9c-1.8,3.4 -4.3,6 -7.7,7.8c-3.3,1.8 -7.2,2.7 -11.6,2.7c-4.5,0 -8.3,-0.9 -11.6,-2.7zm19.6,-9.4c1.9,-2.3 2.8,-5.8 2.8,-10.4c0,-4.5 -0.9,-8 -2.8,-10.4c-1.9,-2.4 -4.6,-3.6 -8.1,-3.6s-6.2,1.2 -8.2,3.6c-1.9,2.4 -2.9,5.8 -2.9,10.4c0,4.6 0.9,8 2.8,10.4c1.9,2.3 4.6,3.5 8.1,3.5c3.7,0.1 6.5,-1.1 8.3,-3.5z"/>
    <path fill="#ffffff" id="svg_11" d="m345.5,13.6l0,62.1l-10.9,0l0,-7c-1.3,2.4 -3.2,4.3 -5.6,5.6c-2.4,1.4 -5.2,2 -8.3,2c-3.7,0 -7,-0.9 -9.9,-2.8c-2.9,-1.9 -5.2,-4.5 -6.8,-8c-1.6,-3.4 -2.4,-7.4 -2.4,-11.9c0,-4.5 0.8,-8.4 2.4,-11.7c1.6,-3.3 3.9,-5.9 6.7,-7.8c2.9,-1.8 6.2,-2.7 10,-2.7c3.1,0 5.9,0.6 8.3,1.9c2.4,1.3 4.3,3.1 5.6,5.5l0,-25.2l10.9,0zm-13.7,50.7c1.9,-2.4 2.9,-5.8 2.9,-10.3s-1,-7.9 -2.9,-10.3c-1.9,-2.4 -4.6,-3.6 -8.1,-3.6c-3.5,0 -6.3,1.2 -8.2,3.5c-1.9,2.3 -2.9,5.7 -2.9,10.1c0,4.5 1,7.9 2.9,10.4s4.6,3.7 8.1,3.7c3.5,0.1 6.2,-1.1 8.2,-3.5z"/>
    <path fill="#ffffff" id="svg_12" d="m396.5,32.6l0,43.1l-10.7,0l0,-6.6c-1.4,2.4 -3.2,4.2 -5.5,5.4c-2.3,1.3 -4.9,1.9 -7.8,1.9c-10.6,0 -15.9,-5.9 -15.9,-17.8l0,-26l11,0l0,26.1c0,3.1 0.6,5.3 1.9,6.8c1.2,1.5 3.2,2.2 5.8,2.2c3.1,0 5.5,-1 7.4,-3c1.8,-2 2.8,-4.7 2.8,-8.1l0,-24l11,0z"/>
    <path fill="#ffffff" id="svg_13" d="m415.8,73.7c-3.3,-1.8 -5.9,-4.4 -7.6,-7.8c-1.8,-3.3 -2.6,-7.3 -2.6,-11.7c0,-4.5 0.9,-8.4 2.8,-11.9c1.9,-3.4 4.5,-6.1 7.9,-8c3.4,-1.9 7.3,-2.8 11.8,-2.8c3.1,0 6,0.5 8.9,1.5s5.2,2.3 7,3.9l-3.2,7.8c-1.8,-1.5 -3.7,-2.6 -5.8,-3.3c-2,-0.8 -4,-1.1 -6,-1.1c-3.8,0 -6.8,1.2 -8.9,3.6c-2.1,2.4 -3.2,5.8 -3.2,10.3c0,4.4 1.1,7.8 3.2,10.2c2.1,2.4 5.1,3.6 8.9,3.6c2,0 4,-0.4 6,-1.1c2,-0.8 3.9,-1.9 5.8,-3.3l3.2,7.7c-1.9,1.7 -4.3,3 -7.2,4c-2.9,1 -6,1.5 -9.2,1.5c-4.6,-0.4 -8.5,-1.3 -11.8,-3.1z"/>
    <path fill="#ffffff" id="svg_14" d="m477.3,67.9l-0.5,8.2c-1.8,0.2 -3.4,0.3 -4.8,0.3c-6.1,0 -10.5,-1.4 -13.4,-4.2c-2.9,-2.8 -4.3,-6.9 -4.3,-12.5l0,-18.8l-8.3,0l0,-8.3l8.3,0l0,-12.8l11,0l0,12.9l11.4,0l0,8.3l-11.4,0l0,18.6c0,5.8 2.7,8.6 8,8.6c1.2,-0.1 2.5,-0.2 4,-0.3z"/>
   </g>
  </g>
 </g>
</svg>