<?xml version="1.0" encoding="utf-8"?>
<!-- Generator: Adobe Illustrator 21.0.0, SVG Export Plug-In . SVG Version: 6.00 Build 0)  -->
<svg version="1.1" id="Layer_1" xmlns="http://www.w3.org/2000/svg" xmlns:xlink="http://www.w3.org/1999/xlink" x="0px" y="0px"
	 viewBox="0 0 485 90" style="enable-background:new 0 0 485 90;" xml:space="preserve">
<style type="text/css">
	.st0{fill:#FF0000;}
</style>
<g>
	<g>
		<path d="M25.2,41.7c-1.4,1.8-3,2.9-4.9,3.3c1.9,0.4,3.5,1.5,4.9,3.3c1.4,1.8,2.1,4,2.1,6.6v16.9c0,1.4,0.3,2.3,0.9,3
			c0.6,0.6,1.5,0.9,2.8,0.9h6.1V84h-9.9c-3.4,0-6-0.9-7.9-2.8c-1.9-1.9-2.8-4.5-2.8-7.8V56.2c0-2.3-0.4-4.1-1.2-5.1
			c-0.8-1.1-2.3-1.7-4.4-1.9L7.7,49v-8l3.2-0.3c2.1-0.2,3.6-0.8,4.4-1.8c0.8-1.1,1.2-2.8,1.2-5.1V16.7c0-3.3,0.9-6,2.8-7.8
			C21.2,7,23.8,6,27.2,6h9.9v8.3H31c-1.2,0-2.2,0.3-2.8,0.9s-0.9,1.6-0.9,3v16.9C27.3,37.7,26.6,39.9,25.2,41.7z"/>
		<path class="st0" d="M67.9,45.9l18.1,22.2H73L61.6,53.8L50.2,68.1h-13l18.1-22.2L38.1,25h13.1l10.3,13.1L71.9,25H85L67.9,45.9z"/>
		<path d="M115.4,41v8l-3.2,0.3c-2.1,0.2-3.6,0.8-4.4,1.9c-0.8,1.1-1.2,2.8-1.2,5.1v17.1c0,3.3-0.9,6-2.8,7.8
			C102,83,99.3,84,95.9,84h-9.9v-8.3h6.1c1.2,0,2.2-0.3,2.8-0.9c0.6-0.6,0.9-1.6,0.9-3V54.9c0-2.6,0.7-4.8,2.1-6.6
			c1.4-1.8,3-2.8,4.9-3.3c-1.9-0.4-3.5-1.5-4.9-3.3c-1.4-1.8-2.1-4-2.1-6.7V18.2c0-1.4-0.3-2.3-0.9-3c-0.6-0.6-1.5-0.9-2.8-0.9h-6.1
			V6h9.9c3.4,0,6,0.9,7.9,2.8c1.9,1.9,2.8,4.5,2.8,7.8v17.1c0,2.4,0.4,4.1,1.2,5.1c0.8,1.1,2.3,1.7,4.4,1.8L115.4,41z"/>
		<path d="M125.2,48.9v-8.7h26.3v8.7H125.2z"/>
	</g>
	<g>
		<path d="M164.1,13.6h27.1c6.6,0,11.8,1.7,15.5,5c3.7,3.3,5.6,8,5.6,14s-1.9,10.7-5.6,14c-3.7,3.3-8.9,5-15.5,5h-15.8v24.1h-11.4
			V13.6z M189.9,42.8c7.8,0,11.7-3.4,11.7-10.2c0-3.5-1-6-2.9-7.7c-1.9-1.7-4.9-2.5-8.8-2.5h-14.4v20.4H189.9z"/>
		<path d="M248.8,40.7l-6.4,0.6c-7.3,0.8-10.9,4.5-10.9,11.1v23.3h-11V32.6h10.5v7.6c2.2-5.2,6.8-8,13.8-8.5l3.3-0.3L248.8,40.7z"/>
		<path d="M261.4,73.7c-3.3-1.8-5.9-4.4-7.7-7.8c-1.8-3.4-2.7-7.4-2.7-11.9c0-4.5,0.9-8.5,2.7-11.9c1.8-3.4,4.4-6,7.7-7.8
			c3.3-1.8,7.2-2.7,11.6-2.7c4.4,0,8.3,0.9,11.6,2.7c3.3,1.8,5.9,4.4,7.7,7.8c1.8,3.4,2.7,7.3,2.7,11.9c0,4.5-0.9,8.5-2.7,11.9
			c-1.8,3.4-4.3,6-7.7,7.8c-3.3,1.8-7.2,2.7-11.6,2.7C268.5,76.4,264.7,75.5,261.4,73.7z M281,64.3c1.9-2.3,2.8-5.8,2.8-10.4
			c0-4.5-0.9-8-2.8-10.4c-1.9-2.4-4.6-3.6-8.1-3.6s-6.2,1.2-8.2,3.6c-1.9,2.4-2.9,5.8-2.9,10.4c0,4.6,0.9,8,2.8,10.4
			c1.9,2.3,4.6,3.5,8.1,3.5C276.4,67.9,279.2,66.7,281,64.3z"/>
		<path d="M345.5,13.6v62.1h-10.9v-7c-1.3,2.4-3.2,4.3-5.6,5.6c-2.4,1.4-5.2,2-8.3,2c-3.7,0-7-0.9-9.9-2.8c-2.9-1.9-5.2-4.5-6.8-8
			c-1.6-3.4-2.4-7.4-2.4-11.9c0-4.5,0.8-8.4,2.4-11.7c1.6-3.3,3.9-5.9,6.7-7.8c2.9-1.8,6.2-2.7,10-2.7c3.1,0,5.9,0.6,8.3,1.9
			c2.4,1.3,4.3,3.1,5.6,5.5V13.6H345.5z M331.8,64.3c1.9-2.4,2.9-5.8,2.9-10.3s-1-7.9-2.9-10.3c-1.9-2.4-4.6-3.6-8.1-3.6
			c-3.5,0-6.3,1.2-8.2,3.5c-1.9,2.3-2.9,5.7-2.9,10.1c0,4.5,1,7.9,2.9,10.4s4.6,3.7,8.1,3.7C327.1,67.9,329.8,66.7,331.8,64.3z"/>
		<path d="M396.5,32.6v43.1h-10.7v-6.6c-1.4,2.4-3.2,4.2-5.5,5.4c-2.3,1.3-4.9,1.9-7.8,1.9c-10.6,0-15.9-5.9-15.9-17.8v-26h11v26.1
			c0,3.1,0.6,5.3,1.9,6.8c1.2,1.5,3.2,2.2,5.8,2.2c3.1,0,5.5-1,7.4-3c1.8-2,2.8-4.7,2.8-8.1v-24H396.5z"/>
		<path d="M415.8,73.7c-3.3-1.8-5.9-4.4-7.6-7.8c-1.8-3.3-2.6-7.3-2.6-11.7c0-4.5,0.9-8.4,2.8-11.9c1.9-3.4,4.5-6.1,7.9-8
			c3.4-1.9,7.3-2.8,11.8-2.8c3.1,0,6,0.5,8.9,1.5s5.2,2.3,7,3.9l-3.2,7.8c-1.8-1.5-3.7-2.6-5.8-3.3c-2-0.8-4-1.1-6-1.1
			c-3.8,0-6.8,1.2-8.9,3.6c-2.1,2.4-3.2,5.8-3.2,10.3c0,4.4,1.1,7.8,3.2,10.2c2.1,2.4,5.1,3.6,8.9,3.6c2,0,4-0.4,6-1.1
			c2-0.8,3.9-1.9,5.8-3.3l3.2,7.7c-1.9,1.7-4.3,3-7.2,4c-2.9,1-6,1.5-9.2,1.5C423,76.4,419.1,75.5,415.8,73.7z"/>
		<path d="M477.3,67.9l-0.5,8.2c-1.8,0.2-3.4,0.3-4.8,0.3c-6.1,0-10.5-1.4-13.4-4.2c-2.9-2.8-4.3-6.9-4.3-12.5V40.9h-8.3v-8.3h8.3
			V19.8h11v12.9h11.4v8.3h-11.4v18.6c0,5.8,2.7,8.6,8,8.6C474.5,68.1,475.8,68,477.3,67.9z"/>
	</g>
</g>
</svg>
